<svg width="157" height="25" viewBox="0 0 157 25" fill="none" xmlns="http://www.w3.org/2000/svg">
<path d="M7.4233 24.1818C6.17898 24.1818 5.11364 24.0085 4.22727 23.6619C3.34091 23.3153 2.64489 22.8409 2.1392 22.2386C1.63352 21.6364 1.32955 20.9545 1.22727 20.1932L5.1733 19.9716C5.24716 20.2386 5.38352 20.4716 5.58239 20.6705C5.78693 20.8693 6.05114 21.0227 6.375 21.1307C6.70455 21.2386 7.09091 21.2926 7.53409 21.2926C8.23295 21.2926 8.80966 21.1222 9.2642 20.7812C9.72443 20.446 9.95455 19.858 9.95455 19.017V16.7159H9.80966C9.64489 17.1193 9.39489 17.4801 9.05966 17.7983C8.72443 18.1165 8.30682 18.3665 7.80682 18.5483C7.3125 18.7301 6.74432 18.821 6.10227 18.821C5.14773 18.821 4.27273 18.5994 3.47727 18.1562C2.6875 17.7074 2.05398 17.0142 1.5767 16.0767C1.10511 15.1335 0.869318 13.9205 0.869318 12.4375C0.869318 10.9091 1.11364 9.65057 1.60227 8.66193C2.09091 7.66761 2.73011 6.93182 3.51989 6.45454C4.31534 5.97727 5.17045 5.73864 6.08523 5.73864C6.77273 5.73864 7.3608 5.85795 7.84943 6.09659C8.34375 6.32955 8.75 6.63068 9.06818 7C9.38636 7.36932 9.62784 7.75284 9.79261 8.15057H9.91193V5.90909H14.0625V19.0511C14.0625 20.1591 13.7841 21.0938 13.2273 21.8551C12.6705 22.6165 11.892 23.1932 10.892 23.5852C9.89205 23.983 8.7358 24.1818 7.4233 24.1818ZM7.55114 15.7869C8.05682 15.7869 8.48864 15.6534 8.84659 15.3864C9.20455 15.1193 9.48011 14.7358 9.6733 14.2358C9.86648 13.7358 9.96307 13.1364 9.96307 12.4375C9.96307 11.7273 9.86648 11.1165 9.6733 10.6051C9.4858 10.0881 9.21023 9.69034 8.84659 9.41193C8.48864 9.13352 8.05682 8.99432 7.55114 8.99432C7.03409 8.99432 6.59659 9.13636 6.23864 9.42045C5.88068 9.70455 5.60795 10.1051 5.42045 10.6222C5.23864 11.1335 5.14773 11.7386 5.14773 12.4375C5.14773 13.1364 5.24148 13.7358 5.42898 14.2358C5.61648 14.7358 5.88636 15.1193 6.23864 15.3864C6.59659 15.6534 7.03409 15.7869 7.55114 15.7869ZM20.4098 19.2216C19.5746 19.2216 18.8331 19.0824 18.1854 18.804C17.5433 18.5199 17.0348 18.0937 16.6598 17.5256C16.2905 16.9517 16.1058 16.233 16.1058 15.3693C16.1058 14.642 16.2337 14.0284 16.4893 13.5284C16.745 13.0284 17.0973 12.6222 17.5462 12.3097C17.995 11.9972 18.5121 11.7614 19.0973 11.6023C19.6825 11.4375 20.3075 11.3267 20.9723 11.2699C21.7166 11.2017 22.3161 11.1307 22.7706 11.0568C23.2251 10.9773 23.5547 10.8665 23.7592 10.7244C23.9695 10.5767 24.0746 10.3693 24.0746 10.1023V10.0597C24.0746 9.62216 23.924 9.28409 23.6229 9.04545C23.3217 8.80682 22.9155 8.6875 22.4041 8.6875C21.853 8.6875 21.4098 8.80682 21.0746 9.04545C20.7393 9.28409 20.5263 9.61364 20.4354 10.0341L16.5916 9.89773C16.7053 9.10227 16.9979 8.39205 17.4695 7.76705C17.9467 7.13636 18.6001 6.64205 19.4297 6.28409C20.2649 5.92045 21.2678 5.73864 22.4382 5.73864C23.2734 5.73864 24.0433 5.83807 24.7479 6.03693C25.4524 6.23011 26.0661 6.5142 26.5888 6.8892C27.1115 7.25852 27.5149 7.71307 27.799 8.25284C28.0888 8.79261 28.2337 9.40909 28.2337 10.1023V19H24.3132V17.1761H24.2109C23.978 17.6193 23.6797 17.9943 23.3161 18.3011C22.9581 18.608 22.5348 18.8381 22.0462 18.9915C21.5632 19.1449 21.0178 19.2216 20.4098 19.2216ZM21.6967 16.4943C22.1456 16.4943 22.549 16.4034 22.907 16.2216C23.2706 16.0398 23.5604 15.7898 23.7763 15.4716C23.9922 15.1477 24.1001 14.7727 24.1001 14.3466V13.1023C23.9808 13.1648 23.8359 13.2216 23.6655 13.2727C23.5007 13.3239 23.3189 13.3722 23.12 13.4176C22.9212 13.4631 22.7166 13.5028 22.5064 13.5369C22.2962 13.571 22.0945 13.6023 21.9013 13.6307C21.5092 13.6932 21.174 13.7898 20.8956 13.9205C20.6229 14.0511 20.4126 14.2216 20.2649 14.4318C20.1229 14.6364 20.0518 14.8807 20.0518 15.1648C20.0518 15.5966 20.2053 15.9261 20.5121 16.1534C20.8246 16.3807 21.2195 16.4943 21.6967 16.4943ZM38.1712 5.90909V8.97727H29.9126V5.90909H38.1712ZM31.6428 2.77273H35.8104V14.8835C35.8104 15.1392 35.8501 15.3466 35.9297 15.5057C36.0149 15.6591 36.1371 15.7699 36.2962 15.8381C36.4553 15.9006 36.6456 15.9318 36.8672 15.9318C37.0263 15.9318 37.1939 15.9176 37.37 15.8892C37.5518 15.8551 37.6882 15.8267 37.7791 15.804L38.4098 18.8125C38.2109 18.8693 37.9297 18.9403 37.5661 19.0256C37.2081 19.1108 36.7791 19.1648 36.2791 19.1875C35.3018 19.233 34.4638 19.1193 33.7649 18.8466C33.0717 18.5682 32.5405 18.1364 32.1712 17.5511C31.8075 16.9659 31.6314 16.2301 31.6428 15.3438V2.77273ZM51.5625 9.90625L47.7358 10.0085C47.696 9.7358 47.5881 9.49432 47.4119 9.28409C47.2358 9.06818 47.0057 8.90057 46.7216 8.78125C46.4432 8.65625 46.1193 8.59375 45.75 8.59375C45.267 8.59375 44.8551 8.69034 44.5142 8.88352C44.179 9.0767 44.0142 9.33807 44.0199 9.66761C44.0142 9.9233 44.1165 10.1449 44.3267 10.3324C44.5426 10.5199 44.9261 10.6705 45.4773 10.7841L48 11.2614C49.3068 11.5114 50.2784 11.9261 50.9148 12.5057C51.5568 13.0852 51.8807 13.8523 51.8864 14.8068C51.8807 15.7045 51.6136 16.4858 51.0852 17.1506C50.5625 17.8153 49.8466 18.3324 48.9375 18.7017C48.0284 19.0653 46.9886 19.2472 45.8182 19.2472C43.9489 19.2472 42.4744 18.8636 41.3949 18.0966C40.321 17.3239 39.7074 16.2898 39.554 14.9943L43.6705 14.892C43.7614 15.3693 43.9972 15.733 44.3778 15.983C44.7585 16.233 45.2443 16.358 45.8352 16.358C46.3693 16.358 46.804 16.2585 47.1392 16.0597C47.4744 15.8608 47.6449 15.5966 47.6506 15.267C47.6449 14.9716 47.5142 14.7358 47.2585 14.5597C47.0028 14.3778 46.6023 14.2358 46.0568 14.1335L43.7727 13.6989C42.4602 13.4602 41.483 13.0199 40.8409 12.3778C40.1989 11.7301 39.8807 10.9062 39.8864 9.90625C39.8807 9.03125 40.1136 8.28409 40.5852 7.66477C41.0568 7.03977 41.7273 6.5625 42.5966 6.23295C43.4659 5.90341 44.4915 5.73864 45.6733 5.73864C47.446 5.73864 48.8438 6.1108 49.8665 6.85511C50.8892 7.59375 51.4545 8.6108 51.5625 9.90625ZM53.9382 19V1.54545H58.1058V8.15057H58.1911C58.3615 7.75284 58.603 7.36932 58.9155 7C59.2337 6.63068 59.6371 6.32955 60.1257 6.09659C60.62 5.85795 61.2109 5.73864 61.8984 5.73864C62.8075 5.73864 63.657 5.97727 64.4467 6.45454C65.2422 6.93182 65.8842 7.66761 66.3729 8.66193C66.8615 9.65625 67.1058 10.9233 67.1058 12.4631C67.1058 13.946 66.87 15.1875 66.3984 16.1875C65.9325 17.1875 65.3018 17.9375 64.5064 18.4375C63.7166 18.9375 62.8388 19.1875 61.8729 19.1875C61.2138 19.1875 60.6428 19.0795 60.1598 18.8636C59.6768 18.6477 59.2706 18.3636 58.9411 18.0114C58.6172 17.6591 58.3672 17.2812 58.1911 16.8778H58.0632V19H53.9382ZM58.0206 12.4545C58.0206 13.1591 58.1143 13.7727 58.3018 14.2955C58.495 14.8182 58.7706 15.2244 59.1286 15.5142C59.4922 15.7983 59.9268 15.9403 60.4325 15.9403C60.9439 15.9403 61.3786 15.7983 61.7365 15.5142C62.0945 15.2244 62.3643 14.8182 62.5462 14.2955C62.7337 13.7727 62.8274 13.1591 62.8274 12.4545C62.8274 11.75 62.7337 11.1392 62.5462 10.6222C62.3643 10.1051 62.0945 9.70455 61.7365 9.42045C61.3842 9.13636 60.9496 8.99432 60.4325 8.99432C59.9212 8.99432 59.4865 9.13352 59.1286 9.41193C58.7706 9.69034 58.495 10.0881 58.3018 10.6051C58.1143 11.1222 58.0206 11.7386 58.0206 12.4545ZM71.4162 23.9091C70.9162 23.9091 70.4446 23.8693 70.0014 23.7898C69.5582 23.7159 69.1776 23.6165 68.8594 23.4915L69.7798 20.4659C70.1889 20.6023 70.5582 20.6818 70.8878 20.7045C71.223 20.7273 71.5099 20.6733 71.7486 20.5426C71.9929 20.4176 72.1804 20.1932 72.3111 19.8693L72.473 19.4773L67.8196 5.90909H72.1832L74.5952 15.25H74.7315L77.1776 5.90909H81.5668L76.6321 20.2528C76.3935 20.9688 76.0554 21.5994 75.6179 22.1449C75.1861 22.696 74.6264 23.1278 73.9389 23.4403C73.2571 23.7528 72.4162 23.9091 71.4162 23.9091ZM92.5994 6.77841C92.5426 6.15341 92.2898 5.66761 91.8409 5.32102C91.3977 4.96875 90.7642 4.79261 89.9403 4.79261C89.3949 4.79261 88.9403 4.86364 88.5767 5.00568C88.2131 5.14773 87.9403 5.34375 87.7585 5.59375C87.5767 5.83807 87.483 6.11932 87.4773 6.4375C87.4659 6.69886 87.517 6.92898 87.6307 7.12784C87.75 7.3267 87.9205 7.50284 88.142 7.65625C88.3693 7.80398 88.642 7.93466 88.9602 8.0483C89.2784 8.16193 89.6364 8.26136 90.0341 8.34659L91.5341 8.6875C92.3977 8.875 93.1591 9.125 93.8182 9.4375C94.483 9.75 95.0398 10.1222 95.4886 10.554C95.9432 10.9858 96.2869 11.483 96.5199 12.0455C96.7528 12.608 96.8722 13.2386 96.8778 13.9375C96.8722 15.0398 96.5938 15.9858 96.0426 16.7756C95.4915 17.5653 94.6989 18.1705 93.6648 18.5909C92.6364 19.0114 91.3949 19.2216 89.9403 19.2216C88.4801 19.2216 87.2074 19.0028 86.1222 18.5653C85.0369 18.1278 84.1932 17.4631 83.5909 16.571C82.9886 15.679 82.679 14.5511 82.6619 13.1875H86.7017C86.7358 13.75 86.8864 14.2188 87.1534 14.5938C87.4205 14.9688 87.7869 15.2528 88.2528 15.446C88.7244 15.6392 89.2699 15.7358 89.8892 15.7358C90.4574 15.7358 90.9403 15.6591 91.3381 15.5057C91.7415 15.3523 92.0511 15.1392 92.267 14.8665C92.483 14.5937 92.5938 14.2812 92.5994 13.929C92.5938 13.5994 92.4915 13.3182 92.2926 13.0852C92.0938 12.8466 91.7869 12.642 91.3722 12.4716C90.9631 12.2955 90.4403 12.1335 89.804 11.9858L87.9801 11.5597C86.4688 11.2131 85.2784 10.6534 84.4091 9.88068C83.5398 9.10227 83.108 8.05114 83.1136 6.72727C83.108 5.64773 83.3977 4.7017 83.983 3.8892C84.5682 3.0767 85.3778 2.44318 86.4119 1.98864C87.446 1.53409 88.625 1.30682 89.9489 1.30682C91.3011 1.30682 92.4744 1.53693 93.4688 1.99716C94.4688 2.4517 95.2443 3.09091 95.7955 3.91477C96.3466 4.73864 96.6278 5.69318 96.6392 6.77841H92.5994ZM105.128 19.2472C103.759 19.2472 102.577 18.9773 101.582 18.4375C100.594 17.892 99.8324 17.1165 99.2983 16.1108C98.7699 15.0994 98.5057 13.8977 98.5057 12.5057C98.5057 11.1534 98.7727 9.97159 99.3068 8.96023C99.8409 7.94318 100.594 7.15341 101.565 6.59091C102.537 6.02273 103.682 5.73864 105 5.73864C105.932 5.73864 106.784 5.88352 107.557 6.17329C108.33 6.46307 108.997 6.89205 109.56 7.46023C110.122 8.02841 110.56 8.73011 110.872 9.56534C111.185 10.3949 111.341 11.3466 111.341 12.4205V13.4602H99.9631V11.0398H107.463C107.457 10.5966 107.352 10.2017 107.148 9.85511C106.943 9.50852 106.662 9.23864 106.304 9.04545C105.952 8.84659 105.545 8.74716 105.085 8.74716C104.619 8.74716 104.202 8.85227 103.832 9.0625C103.463 9.26705 103.17 9.5483 102.955 9.90625C102.739 10.2585 102.625 10.6591 102.614 11.108V13.571C102.614 14.1051 102.719 14.5739 102.929 14.9773C103.139 15.375 103.438 15.6847 103.824 15.9062C104.21 16.1278 104.67 16.2386 105.205 16.2386C105.574 16.2386 105.909 16.1875 106.21 16.0852C106.511 15.983 106.77 15.8324 106.986 15.6335C107.202 15.4347 107.364 15.1903 107.472 14.9006L111.298 15.0114C111.139 15.8693 110.79 16.6165 110.25 17.2528C109.716 17.8835 109.014 18.375 108.145 18.7273C107.276 19.0739 106.27 19.2472 105.128 19.2472ZM113.469 19V5.90909H117.518V8.29545H117.654C117.893 7.43182 118.282 6.78977 118.822 6.36932C119.362 5.94318 119.989 5.73011 120.705 5.73011C120.898 5.73011 121.097 5.74432 121.302 5.77273C121.506 5.79545 121.697 5.83239 121.873 5.88352V9.50568C121.674 9.4375 121.413 9.38352 121.089 9.34375C120.771 9.30398 120.487 9.28409 120.237 9.28409C119.742 9.28409 119.296 9.39489 118.898 9.61648C118.506 9.83239 118.197 10.1364 117.969 10.5284C117.748 10.9148 117.637 11.3693 117.637 11.892V19H113.469ZM123.571 19V5.90909H127.739V19H123.571ZM125.659 4.38352C125.074 4.38352 124.571 4.19034 124.151 3.80398C123.73 3.41193 123.52 2.94034 123.52 2.3892C123.52 1.84375 123.73 1.37784 124.151 0.991477C124.571 0.599431 125.074 0.403408 125.659 0.403408C126.25 0.403408 126.753 0.599431 127.168 0.991477C127.588 1.37784 127.798 1.84375 127.798 2.3892C127.798 2.94034 127.588 3.41193 127.168 3.80398C126.753 4.19034 126.25 4.38352 125.659 4.38352ZM136.511 19.2472C135.141 19.2472 133.96 18.9773 132.965 18.4375C131.977 17.892 131.215 17.1165 130.681 16.1108C130.153 15.0994 129.888 13.8977 129.888 12.5057C129.888 11.1534 130.156 9.97159 130.69 8.96023C131.224 7.94318 131.977 7.15341 132.948 6.59091C133.92 6.02273 135.065 5.73864 136.383 5.73864C137.315 5.73864 138.167 5.88352 138.94 6.17329C139.712 6.46307 140.38 6.89205 140.942 7.46023C141.505 8.02841 141.942 8.73011 142.255 9.56534C142.567 10.3949 142.724 11.3466 142.724 12.4205V13.4602H131.346V11.0398H138.846C138.84 10.5966 138.735 10.2017 138.531 9.85511C138.326 9.50852 138.045 9.23864 137.687 9.04545C137.335 8.84659 136.928 8.74716 136.468 8.74716C136.002 8.74716 135.585 8.85227 135.215 9.0625C134.846 9.26705 134.553 9.5483 134.337 9.90625C134.121 10.2585 134.008 10.6591 133.996 11.108V13.571C133.996 14.1051 134.102 14.5739 134.312 14.9773C134.522 15.375 134.82 15.6847 135.207 15.9062C135.593 16.1278 136.053 16.2386 136.587 16.2386C136.957 16.2386 137.292 16.1875 137.593 16.0852C137.894 15.983 138.153 15.8324 138.369 15.6335C138.585 15.4347 138.746 15.1903 138.854 14.9006L142.681 15.0114C142.522 15.8693 142.173 16.6165 141.633 17.2528C141.099 17.8835 140.397 18.375 139.528 18.7273C138.658 19.0739 137.653 19.2472 136.511 19.2472ZM156.281 9.90625L152.455 10.0085C152.415 9.7358 152.307 9.49432 152.131 9.28409C151.955 9.06818 151.724 8.90057 151.44 8.78125C151.162 8.65625 150.838 8.59375 150.469 8.59375C149.986 8.59375 149.574 8.69034 149.233 8.88352C148.898 9.0767 148.733 9.33807 148.739 9.66761C148.733 9.9233 148.835 10.1449 149.045 10.3324C149.261 10.5199 149.645 10.6705 150.196 10.7841L152.719 11.2614C154.026 11.5114 154.997 11.9261 155.634 12.5057C156.276 13.0852 156.599 13.8523 156.605 14.8068C156.599 15.7045 156.332 16.4858 155.804 17.1506C155.281 17.8153 154.565 18.3324 153.656 18.7017C152.747 19.0653 151.707 19.2472 150.537 19.2472C148.668 19.2472 147.193 18.8636 146.114 18.0966C145.04 17.3239 144.426 16.2898 144.273 14.9943L148.389 14.892C148.48 15.3693 148.716 15.733 149.097 15.983C149.477 16.233 149.963 16.358 150.554 16.358C151.088 16.358 151.523 16.2585 151.858 16.0597C152.193 15.8608 152.364 15.5966 152.369 15.267C152.364 14.9716 152.233 14.7358 151.977 14.5597C151.722 14.3778 151.321 14.2358 150.776 14.1335L148.491 13.6989C147.179 13.4602 146.202 13.0199 145.56 12.3778C144.918 11.7301 144.599 10.9062 144.605 9.90625C144.599 9.03125 144.832 8.28409 145.304 7.66477C145.776 7.03977 146.446 6.5625 147.315 6.23295C148.185 5.90341 149.21 5.73864 150.392 5.73864C152.165 5.73864 153.563 6.1108 154.585 6.85511C155.608 7.59375 156.173 8.6108 156.281 9.90625Z" fill="#F0F5F9"/>
</svg>
